HIERARCHY
ROOT Hips
{
	OFFSET -0.001795 -0.223333 0.028219
	CHANNELS 6 Xposition Yposition Zposition Zrotation Yrotation Xrotation 
	JOINT LeftUpLeg
	{
		OFFSET 0.069520 -0.091406 -0.006815
		CHANNELS 3 Zrotation Yrotation Xrotation
		JOINT LeftLeg
		{
			OFFSET 0.034277 -0.375199 -0.004496
			CHANNELS 3 Zrotation Yrotation Xrotation
			JOINT LeftFoot
			{
				OFFSET -0.013596 -0.397961 -0.043693
				CHANNELS 3 Zrotation Yrotation Xrotation
				JOINT LeftToe
				{
					OFFSET 0.026358 -0.055791 0.119288
					CHANNELS 3 Zrotation Yrotation Xrotation
					End Site
					{
						OFFSET 0.000000 0.000000 0.000000
					}
				}
			}
		}
	}
	JOINT RightUpLeg
	{
		OFFSET -0.067670 -0.090522 -0.004320
		CHANNELS 3 Zrotation Yrotation Xrotation
		JOINT RightLeg
		{
			OFFSET -0.038290 -0.382569 -0.008850
			CHANNELS 3 Zrotation Yrotation Xrotation
			JOINT RightFoot
			{
				OFFSET 0.015774 -0.398415 -0.042312
				CHANNELS 3 Zrotation Yrotation Xrotation
				JOINT RightToe
				{
					OFFSET -0.025372 -0.048144 0.123348
					CHANNELS 3 Zrotation Yrotation Xrotation
					End Site
					{
						OFFSET 0.000000 0.000000 0.000000
					}
				}
			}
		}
	}
	JOINT Spine
	{
		OFFSET -0.002533 0.108963 -0.026696
		CHANNELS 3 Zrotation Yrotation Xrotation
		JOINT Spine1
		{
			OFFSET 0.005487 0.135180 0.001092
			CHANNELS 3 Zrotation Yrotation Xrotation
			JOINT Spine2
			{
				OFFSET 0.001457 0.052922 0.025425
				CHANNELS 3 Zrotation Yrotation Xrotation
				JOINT Neck
				{
					OFFSET -0.002778 0.213870 -0.042857
					CHANNELS 3 Zrotation Yrotation Xrotation
					JOINT Head
					{
						OFFSET 0.005152 0.064970 0.051349
						CHANNELS 3 Zrotation Yrotation Xrotation
						End Site
						{
							OFFSET 0.000000 0.000000 0.000000
						}
					}
				}
				JOINT LeftShoulder
				{
					OFFSET 0.078845 0.121749 -0.034090
					CHANNELS 3 Zrotation Yrotation Xrotation
					JOINT LeftArm
					{
						OFFSET 0.090977 0.030469 -0.008868
						CHANNELS 3 Zrotation Yrotation Xrotation
						JOINT LeftForeArm
						{
							OFFSET 0.259612 -0.012772 -0.027456
							CHANNELS 3 Zrotation Yrotation Xrotation
							JOINT LeftHand
							{
								OFFSET 0.249234 0.008986 -0.001171
								CHANNELS 3 Zrotation Yrotation Xrotation
								End Site
								{
									OFFSET 0.000000 0.000000 0.000000
								}
							}
						}
					}
				}
				JOINT RightShoulder
				{
					OFFSET -0.081759 0.118833 -0.038615
					CHANNELS 3 Zrotation Yrotation Xrotation
					JOINT RightArm
					{
						OFFSET -0.096012 0.032551 -0.009143
						CHANNELS 3 Zrotation Yrotation Xrotation
						JOINT RightForeArm
						{
							OFFSET -0.253742 -0.013329 -0.021401
							CHANNELS 3 Zrotation Yrotation Xrotation
							JOINT RightHand
							{
								OFFSET -0.255298 0.007772 -0.005559
								CHANNELS 3 Zrotation Yrotation Xrotation
								End Site
								{
									OFFSET 0.000000 0.000000 0.000000
								}
							}
						}
					}
				}
			}
		}
	}
}
MOTION
Frames: 7
Frame Time: 0.050000
-1.440508 0.807282 0.458399 3.796725 -27.153196 14.627010 -7.952989 -0.689468 -62.947920 1.868470 0.560418 44.877980 -0.955033 -1.372458 1.862513 0.000000 0.000000 0.000000 0.291695 8.647991 -42.570963 30.031006 -8.654362 63.403176 -16.304142 -39.829737 0.000003 0.000000 0.000000 0.000000 -6.899944 7.847498 48.193485 3.713513 0.029262 -30.553127 2.182630 9.900808 28.952969 -14.541425 6.611491 -53.635174 0.000000 0.000000 0.000000 -35.691201 -8.608252 4.458143 -32.238810 -15.047838 -2.214588 -23.098879 -67.224143 19.594623 0.000000 0.000000 0.000000 13.032399 26.712186 12.417283 45.740816 37.160185 7.486965 -5.359593 63.575157 0.562477 0.000000 0.000000 0.000000 
-1.470339 0.815107 0.473881 4.084100 -26.008016 15.307531 -7.417538 -0.922839 -61.415914 2.770019 0.015423 44.363923 -1.112548 -2.252424 0.208916 0.000000 0.000000 0.000000 -0.739466 8.406456 -43.418790 32.648834 -10.890939 62.763461 -17.292518 -38.002397 9.610990 0.000000 0.000000 0.000000 -7.433180 7.563401 47.103971 2.227590 0.323926 -31.243651 2.564219 7.694708 29.991007 -16.365903 7.052865 -52.907317 0.000000 0.000000 0.000000 -35.216504 -9.301244 6.058212 -31.999170 -17.640457 -1.969719 -16.794378 -66.523637 15.478239 0.000000 0.000000 0.000000 12.365891 27.428333 12.243584 47.899736 36.872343 7.817311 -2.356803 64.343082 2.187166 0.000000 0.000000 0.000000 
-1.499417 0.829306 0.488438 4.045761 -24.885343 15.004203 -5.473175 -0.501179 -58.122155 1.971731 0.526295 42.696100 -1.410638 -2.839122 0.272190 0.000000 0.000000 0.000000 -2.982384 7.816312 -44.488730 36.083464 -13.779432 62.498058 -15.447201 -31.806591 21.344352 0.000000 0.000000 0.000000 -8.513505 7.872864 47.047245 2.802759 0.160222 -30.330552 2.600850 6.528096 28.691047 -16.302876 7.114667 -51.423059 0.000000 0.000000 0.000000 -36.589445 -10.017619 6.952375 -30.174508 -19.620885 -1.573115 -13.999542 -67.083530 13.745995 0.000000 0.000000 0.000000 11.985965 27.961141 12.316791 48.860226 35.555585 7.590728 -1.262145 66.016749 2.834929 0.000000 0.000000 0.000000 
-1.525035 0.843463 0.501806 2.662573 -25.191301 15.208729 -2.208356 1.147406 -55.951839 0.819384 1.406252 42.494948 -1.809768 -3.079996 1.814878 0.000000 0.000000 0.000000 -7.433660 6.995274 -46.537669 39.964746 -16.704642 62.325054 -8.244199 -21.016973 28.947611 0.000000 0.000000 0.000000 -9.164816 8.303378 47.086101 4.004855 0.081116 -31.403885 2.806457 6.527622 29.567779 -17.022829 7.402533 -50.766471 0.000000 0.000000 0.000000 -36.300296 -10.477499 7.430201 -31.450127 -20.825941 -1.391178 -14.350546 -67.173397 14.246406 0.000000 0.000000 0.000000 11.261626 27.608316 11.969606 49.772277 33.833811 6.976707 -0.187852 67.145130 3.604028 0.000000 0.000000 0.000000 
-1.547800 0.855251 0.513646 2.376723 -23.541858 15.538281 -0.430076 1.358797 -54.623530 -0.042525 1.698444 41.991987 -2.677885 -3.953863 3.944077 0.000000 0.000000 0.000000 -12.968631 5.341618 -48.859191 40.144168 -18.276120 61.990733 -8.042825 -20.658440 30.143362 0.000000 0.000000 0.000000 -8.107067 7.288201 47.063857 4.580443 0.068415 -31.830360 2.477887 5.040354 28.979444 -16.850010 7.409625 -49.538778 0.000000 0.000000 0.000000 -37.896059 -10.398127 7.908156 -30.703528 -21.847744 -1.247838 -14.724287 -68.246022 14.807597 0.000000 0.000000 0.000000 10.960958 26.838259 11.385447 49.401576 32.969211 6.495470 0.540472 66.086709 3.740765 0.000000 0.000000 0.000000 
-1.569371 0.862527 0.523877 0.954708 -23.739762 16.191924 2.714731 2.910476 -53.304972 -0.962355 2.404638 42.506930 -3.339885 -5.409536 3.383290 0.000000 0.000000 0.000000 -17.208211 4.423487 -51.323900 36.868438 -15.996791 59.604875 -18.761997 -35.219789 26.680917 0.000000 0.000000 0.000000 -6.798589 6.606608 47.151794 4.577786 0.002206 -31.377261 2.912127 5.416937 28.561494 -17.420046 7.626808 -49.232429 0.000000 0.000000 0.000000 -38.919996 -10.564335 8.035429 -30.623265 -23.936981 -0.781915 -15.837712 -69.570214 16.032084 0.000000 0.000000 0.000000 10.980013 27.241758 11.602147 46.275187 32.583855 5.715460 -6.944520 66.010056 -1.155451 0.000000 0.000000 0.000000 
-1.591954 0.866131 0.533056 0.098709 -23.176310 16.469141 3.963936 3.219604 -52.119800 -0.014076 1.886203 42.479102 -3.181396 -5.183287 3.243808 0.000000 0.000000 0.000000 -21.051982 3.104290 -51.760393 32.150151 -12.305933 54.049017 -32.366545 -52.556721 23.844317 0.000000 0.000000 0.000000 -5.368914 5.694027 47.254263 5.842809 -0.146476 -31.680415 2.842854 5.615997 28.207504 -17.057813 7.598450 -48.707638 0.000000 0.000000 0.000000 -40.489848 -10.495460 7.953825 -30.413555 -24.526171 -0.629500 -18.942983 -69.622935 18.224002 0.000000 0.000000 0.000000 11.371221 27.296964 11.745344 43.691531 31.423409 4.808609 -9.071651 64.991475 -2.569106 0.000000 0.000000 0.000000 
